<?xml version="1.0" standalone="no"?>
<!DOCTYPE svg PUBLIC "-//W3C//DTD SVG 20010904//EN"
 "http://www.w3.org/TR/2001/REC-SVG-20010904/DTD/svg10.dtd">
<svg version="1.0" xmlns="http://www.w3.org/2000/svg"
 width="512.000000pt" height="512.000000pt" viewBox="0 0 512.000000 512.000000"
 preserveAspectRatio="xMidYMid meet">
<metadata>
Created by potrace 1.14, written by Peter Selinger 2001-2017
</metadata>
<g transform="translate(0.000000,512.000000) scale(0.100000,-0.100000)"
fill="#000000" stroke="none">
<path d="M1410 4705 c-277 -52 -492 -166 -676 -357 -163 -169 -277 -395 -318
-633 -11 -65 -14 -282 -14 -1145 -1 -602 3 -1092 9 -1128 16 -108 19 -125 49
-214 62 -185 153 -332 289 -469 186 -185 366 -282 631 -338 92 -19 127 -20
1195 -18 605 2 1114 6 1130 10 17 4 46 10 65 13 117 20 324 110 440 192 88 62
245 222 301 307 84 127 153 284 178 405 6 30 14 66 18 80 4 14 8 515 10 1115
2 1194 3 1189 -56 1365 -66 195 -152 333 -300 480 -177 176 -357 272 -606 326
l-110 23 -1085 -1 c-810 -1 -1101 -4 -1150 -13z m1360 -400 c47 -3 94 -8 105
-10 11 -2 38 -6 60 -9 22 -3 60 -9 85 -15 25 -5 56 -12 70 -14 210 -38 524
-184 702 -325 316 -253 492 -593 523 -1013 l7 -85 -69 2 c-63 2 -248 5 -1520
20 l-473 5 0 -450 0 -451 300 0 300 0 0 150 0 150 730 0 731 0 -6 -71 c-5 -61
-20 -158 -40 -251 -11 -54 -68 -205 -107 -283 -151 -299 -410 -537 -740 -678
-100 -43 -221 -87 -283 -103 -16 -4 -34 -8 -40 -10 -35 -9 -178 -36 -215 -40
-25 -2 -56 -7 -70 -10 -42 -9 -442 -12 -474 -3 -17 4 -53 10 -81 14 -338 43
-698 225 -955 484 -105 106 -113 116 -186 216 -62 86 -119 187 -163 285 -18
41 -37 84 -42 95 -28 61 -84 267 -95 350 -3 28 -8 59 -11 70 -9 45 -11 375 -2
435 5 36 11 79 14 95 18 132 95 358 173 505 37 69 133 219 167 259 199 240
383 392 604 501 173 86 266 119 431 154 110 24 118 25 200 32 41 4 76 7 78 9
4 3 200 -3 292 -10z"/>
</g>
</svg>
